<?xml version="1.0" standalone="no"?><!DOCTYPE svg PUBLIC "-//W3C//DTD SVG 1.1//EN" "http://www.w3.org/Graphics/SVG/1.1/DTD/svg11.dtd"><svg t="1607527149429" class="icon" viewBox="0 0 1024 1024" version="1.1" xmlns="http://www.w3.org/2000/svg" p-id="4623" xmlns:xlink="http://www.w3.org/1999/xlink" width="200" height="200"><defs><style type="text/css"></style></defs><path d="M512 51.2C256 51.2 44.8 262.4 44.8 518.4S256 979.2 512 979.2 972.8 768 972.8 512 768 51.2 512 51.2zM512 0c281.6 0 512 230.4 512 512s-230.4 512-512 512-512-230.4-512-512 230.4-512 512-512z" fill="#838DA7" p-id="4624"></path><path d="M435.2 633.6l153.6-140.8-166.4-153.6s-6.4-6.4-6.4-19.2c0-12.8 12.8-19.2 19.2-19.2 6.4 0 12.8 6.4 12.8 6.4l19.2 19.2 166.4 153.6c6.4 0 6.4 6.4 6.4 12.8s0 12.8-6.4 19.2l-160 147.2-25.6 19.2c-6.4 6.4-6.4 6.4-12.8 6.4-12.8 0-19.2-12.8-19.2-19.2 0-6.4 6.4-12.8 6.4-19.2l12.8-12.8z" fill="#838DA7" p-id="4625"></path></svg>