<?xml version="1.0" standalone="no"?><!DOCTYPE svg PUBLIC "-//W3C//DTD SVG 1.1//EN" "http://www.w3.org/Graphics/SVG/1.1/DTD/svg11.dtd"><svg t="1607527193061" class="icon" viewBox="0 0 1024 1024" version="1.1" xmlns="http://www.w3.org/2000/svg" p-id="5352" xmlns:xlink="http://www.w3.org/1999/xlink" width="200" height="200"><defs><style type="text/css"></style></defs><path d="M512 51.2c256 0 467.2 211.2 467.2 467.2S768 979.2 512 979.2 51.2 768 51.2 512 256 51.2 512 51.2M512 0C230.4 0 0 230.4 0 512s230.4 512 512 512 512-230.4 512-512S793.6 0 512 0z" fill="#838DA7" p-id="5353"></path><path d="M588.8 633.6L435.2 492.8l166.4-153.6s6.4-6.4 6.4-19.2c0-12.8-12.8-19.2-19.2-19.2-6.4 0-12.8 6.4-12.8 6.4l-19.2 19.2L390.4 480c-6.4 0-6.4 6.4-6.4 12.8s0 12.8 6.4 19.2l160 147.2 25.6 19.2c6.4 6.4 6.4 6.4 12.8 6.4 12.8 0 19.2-12.8 19.2-19.2 0-6.4-6.4-12.8-6.4-19.2l-12.8-12.8z" fill="#838DA7" p-id="5354"></path></svg>